<?xml version="1.0" standalone="no"?>
<!DOCTYPE svg PUBLIC "-//W3C//DTD SVG 20010904//EN"
 "http://www.w3.org/TR/2001/REC-SVG-20010904/DTD/svg10.dtd">
<svg version="1.0" xmlns="http://www.w3.org/2000/svg"
 width="568.000000pt" height="570.000000pt" viewBox="0 0 568.000000 570.000000"
 preserveAspectRatio="xMidYMid meet">

<g transform="translate(0.000000,570.000000) scale(0.100000,-0.100000)"
fill="#000000" stroke="none">
<path d="M873 5196 c-142 -35 -301 -160 -371 -292 -66 -127 -62 18 -62 -2094
0 -1642 2 -1923 15 -1970 54 -202 232 -373 432 -415 58 -12 355 -15 1948 -15
2064 0 1948 -3 2082 61 92 44 216 167 261 261 66 135 63 29 60 2118 -3 1808
-4 1898 -21 1950 -49 146 -157 276 -282 342 -141 73 22 68 -2101 67 -1504 -1
-1920 -3 -1961 -13z m2392 -675 c55 -21 85 -49 361 -325 319 -319 334 -338
355 -450 5 -29 8 -210 7 -406 l-3 -355 -90 0 c-78 0 -94 3 -122 23 -20 14 -36
37 -43 60 -5 21 -10 142 -10 274 l0 237 -297 3 c-425 4 -397 -24 -401 401 l-3
297 -684 0 -683 0 -31 -31 -31 -31 0 -1380 0 -1380 34 -34 34 -34 751 0 c845
0 750 8 901 -80 130 -76 156 -116 111 -171 l-19 -24 -884 0 c-824 0 -886 1
-934 18 -113 39 -201 123 -246 234 l-23 58 -3 1354 c-1 809 1 1382 7 1422 11
84 46 160 99 220 45 51 140 106 204 119 24 4 389 7 813 7 l770 -2 60 -24z
m-928 -427 c14 -9 33 -33 42 -55 15 -35 19 -39 54 -39 107 0 171 -109 117
-198 -32 -52 -70 -62 -226 -62 -114 0 -141 -3 -156 -17 -22 -19 -23 -33 -4
-59 12 -16 31 -20 128 -24 80 -4 124 -11 150 -24 58 -28 121 -89 153 -147 27
-48 30 -63 30 -139 0 -76 -3 -91 -30 -139 -36 -65 -94 -116 -157 -138 -39 -15
-47 -22 -52 -48 -10 -49 -69 -95 -121 -95 -50 0 -96 30 -117 77 -18 41 -21 43
-61 43 -78 0 -126 50 -127 132 0 57 34 102 88 118 20 5 96 10 168 10 137 0
154 5 154 46 0 34 -18 41 -127 47 -121 6 -188 32 -253 97 -155 155 -108 406
93 494 40 18 57 31 57 45 0 26 38 71 74 87 36 17 88 12 123 -12z m1547 -1199
c419 -73 709 -440 683 -867 -4 -55 -8 -103 -11 -105 -3 -3 -32 18 -65 47 l-61
53 0 77 c0 305 -230 585 -537 654 -196 44 -405 -3 -569 -127 -94 -72 -94 -71
-46 -120 77 -79 152 -235 152 -318 l0 -29 73 0 c70 1 73 2 92 32 33 51 67 71
127 71 66 1 110 -21 142 -71 51 -79 36 -177 -37 -236 -33 -26 -47 -31 -91 -31
-61 1 -133 38 -156 79 -12 24 -19 26 -81 26 l-67 0 -11 -48 c-22 -103 -93
-225 -172 -297 l-43 -38 66 -61 c123 -114 245 -169 416 -186 93 -10 196 -3
246 16 11 4 16 -6 21 -43 3 -26 8 -56 9 -65 2 -10 -7 -24 -21 -33 -39 -26
-293 -23 -398 4 -155 41 -305 129 -403 235 -28 31 -55 56 -60 56 -5 0 -16 -9
-23 -20 -12 -18 -29 -21 -124 -27 -325 -18 -559 138 -650 432 l-21 70 -42 3
c-38 3 -45 -1 -89 -46 -54 -56 -97 -70 -162 -52 -135 36 -175 197 -73 293 67
64 168 55 239 -19 38 -39 48 -44 87 -44 l43 0 7 43 c48 313 353 536 665 488
40 -6 99 -22 131 -35 l59 -24 58 71 c79 97 140 143 223 168 129 39 329 49 474
24z m243 -734 c20 -2 636 -509 661 -544 26 -37 30 -103 7 -147 -18 -36 -62
-60 -107 -60 -56 0 -158 -29 -222 -62 -38 -20 -90 -61 -136 -108 -41 -42 -85
-82 -97 -88 -53 -29 -138 -1 -166 55 -8 15 -18 62 -22 103 -3 41 -26 223 -50
405 -44 340 -44 367 -8 408 24 26 72 46 103 42 14 -1 30 -3 37 -4z"/>
<path d="M1675 4320 c11 -14 20 -26 21 -27 0 -2 11 9 25 24 22 25 22 26 2 9
-23 -19 -23 -19 -45 0 l-23 19 20 -25z"/>
<path d="M3300 4005 l0 -145 147 0 148 0 -145 145 c-80 80 -146 145 -147 145
-2 0 -3 -65 -3 -145z"/>
<path d="M2715 2542 c-151 -52 -279 -193 -301 -331 l-7 -41 262 0 261 0 0 27
c0 49 32 157 71 242 22 46 38 85 37 86 -2 1 -25 10 -52 19 -67 22 -205 21
-271 -2z"/>
<path d="M3132 2394 c-27 -54 -49 -119 -66 -196 l-6 -28 120 0 c137 0 132 -5
100 91 -21 61 -48 110 -93 164 l-25 29 -30 -60z"/>
<path d="M3710 2122 c-31 -25 -21 -55 17 -50 32 3 43 37 20 57 -11 9 -19 7
-37 -7z"/>
<path d="M1985 2119 c-12 -19 4 -59 25 -59 25 0 41 30 29 53 -11 19 -44 23
-54 6z"/>
<path d="M3060 2020 c0 -58 61 -250 80 -250 30 0 136 167 154 243 l6 27 -120
0 c-112 0 -120 -1 -120 -20z"/>
<path d="M2416 2003 c23 -95 115 -220 201 -270 98 -57 227 -77 343 -52 54 12
57 16 36 57 -23 45 -53 144 -66 220 l-12 72 -254 0 -254 0 6 -27z"/>
<path d="M4136 1707 c24 -172 45 -337 49 -368 l6 -56 58 57 c101 98 221 160
356 183 l73 12 -265 220 c-145 121 -277 230 -292 242 l-27 21 42 -311z"/>
</g>
</svg>
